<svg width="807" height="480" viewBox="0 0 807 480" xmlns="http://www.w3.org/2000/svg">
    <title>
        Group
    </title>
    <g transform="translate(-9 -8)" fill="none" fill-rule="evenodd">
        <rect fill="#FFC07F" transform="rotate(-10 316.75 149.47)" x="214.731" y="115.612" width="204.039" height="67.716" rx="33.858"/>
        <path d="M246.549 153.692l4.763-.84c4.299-.758 7.304 1.98 7.889 5.297.585 3.317-1.284 6.914-5.602 7.676l-4.763.84-2.287-12.973zm5.072 1.781l-1.612.284 1.372 7.784 1.612-.284c2.428-.429 3.503-2.567 3.15-4.569-.353-2.001-2.094-3.643-4.522-3.215zm16.756-3.146l-4.911.866.52 2.947 4.91-.866.415 2.354-4.91.866.502 2.854 4.911-.866.425 2.409-7.913 1.395-2.287-12.972 7.913-1.396.425 2.41zm10.432-1.839l-4.911.866.52 2.947 4.91-.866.415 2.353-4.91.866.502 2.854 4.911-.866.425 2.41-7.913 1.395-2.287-12.973 7.913-1.395.425 2.409zm4.381 10.12l-2.287-12.973 5.43-.958c2.872-.506 5.108 1.335 5.552 3.856.444 2.52-1.027 5.015-3.899 5.522l-2.428.428.634 3.595-3.002.53zm3.994-6.934c1.26-.223 1.893-1.404 1.68-2.609-.212-1.204-1.21-2.098-2.47-1.876l-2.058.363.79 4.484 2.058-.362zm15.115.889l3.688-.65.458 2.594-6.69 1.18-2.288-12.973 3.002-.53 1.83 10.379zm12.048-10.341l-4.911.866.52 2.946 4.91-.866.415 2.354-4.91.866.503 2.854 4.91-.866.425 2.409-7.913 1.395-2.287-12.972 7.913-1.395.425 2.409zm10.1 5.06l-2.497-5.063-.653 5.618 3.15-.556zm5.197 3.134l-3.262.575-.778-1.487-4.615.814-.222 1.663-3.206.566 2.345-13.79 2.762-.487 6.976 12.146zm5.456-7.191c1.26-.222 1.893-1.404 1.68-2.609-.212-1.204-1.21-2.098-2.47-1.876l-2.058.363.791 4.484 2.057-.362zm-3.994 6.933l-2.287-12.972 5.448-.96c2.873-.507 5.108 1.334 5.553 3.854.32 1.817-.36 3.599-1.838 4.643l3.317 3.638-3.484.614-2.932-3.19-1.409.249.634 3.595-3.002.53zm13.111-15.687l6.179 7.624-1.49-8.451 2.984-.526 2.287 12.972-3.132.552-6.14-7.515 1.47 8.339-3.002.53-2.288-12.973 3.132-.552zm12.59 11.156l-2.287-12.973 3.039-.536 2.287 12.973-3.039.536zm6.514-14.525l6.178 7.624-1.49-8.45 2.984-.527 2.287 12.973-3.131.552-6.141-7.516 1.47 8.34-3.002.529-2.287-12.973 3.132-.552zm18.966 5.274l-.395-2.243 6.727-1.186.395 2.243-1.334.235c0 3.038-1.852 5.428-5.558 6.082-4.355.768-7.363-1.989-8.004-5.62-.624-3.54 1.355-7.272 5.599-8.02 3.41-.601 6.13 1.06 6.786 3.485l-3.206.565c-.365-.986-1.566-1.73-3.141-1.452-2.446.431-3.344 2.71-2.958 4.897.405 2.298 2.03 4.037 4.717 3.563 1.816-.32 2.695-1.621 2.67-2.954l-2.298.405z" fill="#FCFBF8"/>
        <rect fill="#00B5AA" transform="rotate(-51 376.893 289.357)" x="326.106" y="255.499" width="101.574" height="67.716" rx="33.858"/>
        <path d="M356.295 298.967l3.043-3.759c2.748-3.393 6.812-3.298 9.43-1.178 2.617 2.12 3.566 6.06.807 9.468l-3.043 3.758-10.237-8.29zm4.996-1.984l-1.03 1.273 6.142 4.973 1.03-1.272c1.551-1.916.96-4.235-.62-5.514s-3.97-1.376-5.522.54zm14.527-7.533l-5.207-2.182 3.193 4.668 2.014-2.486zm5.978-1.043l-2.085 2.574-1.562-.612-2.95 3.642.924 1.401-2.049 2.53-7.276-11.946 1.765-2.179 13.233 4.59zm1.503-1.856l-8.19-6.632-1.871 2.31-2.047-1.657 5.672-7.005 2.048 1.658-1.883 2.325 8.19 6.632-1.92 2.369zm5.176-12.732l-5.206-2.182 3.193 4.668 2.013-2.486zm5.978-1.043l-2.084 2.574-1.563-.612-2.949 3.642.924 1.401-2.049 2.53-7.276-11.946 1.764-2.179 13.233 4.59z" fill="#FCFBF8"/>
        <rect fill="#FF6279" transform="rotate(-47 147.46 317.869)" x="60.588" y="284.011" width="173.745" height="67.716" rx="33.858"/>
        <path d="M106.57 350.166l9.523 2.37-6.276-5.852 2.067-2.216 9.634 8.984-2.17 2.326-9.427-2.307 6.193 5.775-2.079 2.23-9.633-8.984 2.169-2.326zm18.292-6.15l-5.042-2.54 2.86 4.88 2.182-2.34zm6.036-.623l-2.259 2.422-1.516-.72-3.196 3.428.824 1.462-2.22 2.38-6.426-12.423 1.912-2.051 12.88 5.502zm.03-9.027c.872-.936.666-2.26-.228-3.095-.895-.834-2.23-.947-3.103-.011l-1.424 1.527 3.33 3.106 1.425-1.527zm.983 7.94l-9.634-8.983 3.773-4.046c1.99-2.133 4.883-2.008 6.755-.263 1.348 1.258 1.878 3.09 1.326 4.814l4.838.91-2.412 2.587-4.262-.784-.975 1.046 2.67 2.49-2.08 2.23zm7.512-17.05c.872-.936.666-2.26-.228-3.094-.895-.835-2.23-.948-3.103-.012l-1.424 1.528 3.33 3.106 1.425-1.528zm.983 7.94l-9.634-8.983 3.773-4.046c1.99-2.133 4.883-2.008 6.755-.262 1.348 1.257 1.878 3.09 1.326 4.813l4.838.91-2.413 2.587-4.26-.783-.976 1.046 2.67 2.49-2.08 2.229zm12.965-13.406c-2.99 3.207-7.184 2.848-9.826.383-2.643-2.464-3.294-6.622-.304-9.828 2.978-3.193 7.171-2.834 9.813-.37 2.643 2.465 3.294 6.622.317 9.815zm-2.01-1.873c1.63-1.748 1.159-4.195-.424-5.67-1.583-1.477-4.056-1.776-5.686-.029-1.643 1.762-1.159 4.195.424 5.67 1.583 1.477 4.044 1.79 5.686.029zm14.903-12.45l-7.84-3.733 4.272 7.56-1.707 1.83-12.804-5.584 2.195-2.354 8.152 3.923-4.495-7.845 1.605-1.72 8.152 3.922-4.495-7.845 2.195-2.353 6.464 12.383-1.694 1.817zm10.555-17.168l-5.041-2.54 2.86 4.88 2.181-2.34zm6.037-.624l-2.26 2.422-1.516-.72-3.195 3.428.823 1.462-2.22 2.381-6.425-12.424 1.912-2.05 12.88 5.501zm1.012-1.086l-9.633-8.984 2.104-2.257 9.634 8.984-2.105 2.257z" fill="#FCFBF8"/>
        <rect fill="#E15FBD" transform="rotate(-16 421.888 196.693)" x="299.376" y="162.835" width="245.025" height="67.716" rx="33.858"/>
        <path d="M347.757 210.523l3.631 12.662-2.858.82-2.251-7.851-.48 8.634-2.171.622-5.073-7.041 2.251 7.85-2.858.82-3.63-12.662 3.382-.97 5.909 7.84.82-9.77 3.328-.954zm11.357 6.296l-3.013-4.773-.062 5.655 3.075-.882zm5.496 2.575l-3.184.913-.93-1.398-4.503 1.292-.048 1.677-3.13.898.892-13.96 2.695-.772 8.208 11.35zm8.826-7.445l3.111-.892c.285 2.835-1.426 5.675-4.917 6.676-4.27 1.224-7.694-1.16-8.716-4.724-.99-3.455.593-7.355 4.735-8.542 3.925-1.126 6.77.603 7.962 3.394l-3.057.876c-.697-1.405-2.158-2.2-3.967-1.681-2.478.71-3.285 3.017-2.688 5.097.638 2.225 2.604 3.619 5.136 2.893 1.43-.41 2.42-1.732 2.401-3.097zm13.637 1.004l-1.442-5.03-4.377 1.256 1.442 5.029-2.93.84-3.632-12.662 2.93-.84 1.469 5.119 4.377-1.255-1.468-5.12 2.913-.835 3.63 12.662-2.912.836zm5.48-1.572l-3.631-12.662 2.966-.85 3.631 12.662-2.966.85zm4.96-15.125l6.941 6.936-2.365-8.249 2.912-.835 3.631 12.663-3.057.876-6.892-6.833 2.334 8.14-2.93.84-3.632-12.662 3.057-.876zm18.454-2.747l-4.794 1.375.825 2.876 4.793-1.375.66 2.297-4.794 1.375.798 2.786 4.794-1.375.674 2.352-7.724 2.215-3.63-12.663 7.723-2.215.675 2.352zm12.158 4.932l3.6-1.033.726 2.533-6.53 1.872-3.631-12.662 2.93-.84 2.905 10.13zm10.9-11.544l-4.793 1.375.825 2.876 4.793-1.375.659 2.297-4.794 1.375.8 2.786 4.793-1.375.674 2.352-7.724 2.215-3.63-12.663 7.723-2.215.675 2.352zm10.575 3.976l-3.013-4.774-.062 5.656 3.075-.882zm5.495 2.575l-3.184.913-.929-1.398-4.504 1.292-.048 1.677-3.129.897.891-13.959 2.696-.772 8.207 11.35zm4.675-7.723c1.23-.352 1.735-1.594 1.398-2.77-.337-1.175-1.423-1.96-2.653-1.607l-2.008.575 1.255 4.378 2.008-.576zm-3.247 7.313l-3.631-12.662 5.318-1.525c2.804-.804 5.22.794 5.925 3.254.508 1.773.019 3.616-1.342 4.809l3.679 3.271-3.401.976-3.25-2.866-1.374.394 1.006 3.509-2.93.84zm11.4-16.972l6.94 6.936-2.364-8.248 2.912-.835 3.63 12.662-3.056.877-6.893-6.833 2.334 8.14-2.93.84-3.63-12.662 3.056-.877zm13.686 9.779l-3.63-12.662 2.966-.851 3.63 12.662-2.966.85zm4.96-15.126l6.942 6.937-2.366-8.249 2.913-.835 3.63 12.662-3.057.877-6.892-6.833 2.334 8.14-2.93.84-3.631-12.662 3.057-.877zm19.414 3.262l-.628-2.188 6.566-1.883.628 2.189-1.303.373c.319 3.021-1.274 5.592-4.891 6.63-4.251 1.218-7.531-1.208-8.548-4.754-.99-3.455.588-7.372 4.73-8.56 3.328-.954 6.207.413 7.113 2.757l-3.129.897c-.466-.943-1.738-1.557-3.276-1.116-2.388.684-3.042 3.045-2.43 5.18.643 2.243 2.441 3.802 5.064 3.05 1.773-.508 2.51-1.895 2.347-3.218l-2.243.643z" fill="#FCFBF8"/>
        <rect fill="#4844A3" transform="rotate(28 202.257 212.731)" x="82.863" y="178.873" width="238.788" height="67.716" rx="33.858"/>
        <path d="M122.777 177.459l6.185-11.631 2.724 1.449-6.184 11.63-2.725-1.448zm14.075-7.435l.175 9.811 4.029-7.576 2.675 1.422-6.184 11.63-2.808-1.492-.212-9.703-3.975 7.477-2.692-1.432 6.184-11.63 2.808 1.493zm4.814 17.478l4.947-9.305-2.625-1.395 1.237-2.326 7.959 4.231-1.237 2.326-2.642-1.404-4.947 9.304-2.692-1.431zm18.958-2.068l-4.403-2.341-1.405 2.642 4.403 2.34-1.122 2.11-4.403-2.34-1.36 2.558 4.403 2.342-1.149 2.16-7.094-3.773 6.184-11.63 7.094 3.772-1.148 2.16zm1.151 9.776l3.307 1.758-1.237 2.327-5.998-3.19 6.184-11.63 2.691 1.43-4.947 9.305zm7.658 4.072l3.307 1.758-1.237 2.327-5.998-3.19 6.184-11.63 2.692 1.43-4.948 9.305zm3.73 4.967l6.184-11.63 2.725 1.448-6.184 11.631-2.725-1.449zm13.73 1.993l1.068-2.01 6.032 3.207-1.07 2.01-1.196-.636c-1.87 2.395-4.8 3.138-8.124 1.371-3.904-2.076-4.578-6.1-2.847-9.357 1.688-3.173 5.544-4.895 9.35-2.872 3.057 1.626 4.177 4.609 3.202 6.924l-2.875-1.528c.32-1.002-.169-2.328-1.581-3.079-2.193-1.166-4.304.078-5.346 2.038-1.096 2.06-.886 4.432 1.524 5.713 1.628.865 3.122.38 3.923-.685l-2.06-1.096zm17.489 2.458l-4.403-2.34-1.405 2.64 4.403 2.342-1.122 2.11-4.403-2.34-1.36 2.558 4.402 2.34-1.148 2.16-7.095-3.771 6.184-11.631 7.095 3.772-1.148 2.16zm6.214.534l.175 9.812 4.029-7.577 2.675 1.423-6.184 11.63-2.808-1.493-.212-9.703-3.975 7.477-2.692-1.431 6.184-11.631 2.808 1.493zm4.814 17.478l4.947-9.304-2.625-1.396 1.237-2.326 7.959 4.232-1.237 2.326-2.642-1.405-4.947 9.305-2.692-1.432zm18.618 5.382l1.149-5.528-3.973 4.026 2.824 1.502zm2.165 5.669l-2.924-1.555.302-1.65-4.137-2.2-1.2 1.173-2.874-1.528 10.338-9.422 2.475 1.316-1.98 13.866zm9.41-.304l1.068-2.01 6.032 3.207-1.07 2.01-1.196-.636c-1.87 2.394-4.8 3.138-8.124 1.37-3.904-2.075-4.578-6.1-2.847-9.356 1.688-3.174 5.544-4.895 9.35-2.872 3.057 1.625 4.177 4.608 3.202 6.924l-2.875-1.528c.32-1.002-.169-2.328-1.581-3.079-2.193-1.166-4.304.077-5.346 2.038-1.096 2.06-.886 4.431 1.523 5.712 1.629.866 3.122.381 3.924-.684l-2.06-1.096zm17.489 2.458l-4.404-2.341-1.404 2.642 4.403 2.34-1.122 2.11-4.403-2.34-1.36 2.558 4.402 2.342-1.148 2.16-7.095-3.773 6.184-11.63 7.095 3.772-1.148 2.16zm6.214.534l.175 9.811 4.029-7.576 2.675 1.422-6.184 11.63-2.808-1.492-.212-9.703-3.975 7.476-2.692-1.43 6.184-11.631 2.808 1.493zm4.814 17.478l4.947-9.305-2.625-1.395 1.237-2.326 7.959 4.231-1.237 2.326-2.642-1.404-4.947 9.304-2.692-1.431z" fill="#FCFBF8"/>
        <rect fill="#FF6279" transform="rotate(11 487.653 319.883)" x="409.245" y="286.025" width="156.816" height="67.716" rx="33.858"/>
        <path d="M450.974 308.186l-4.895-.951-.57 2.937 4.894.951-.456 2.346-4.895-.951-.553 2.845 4.895.951-.466 2.401-7.888-1.533 2.513-12.93 7.888 1.533-.467 2.401zm16.702.755l-2.513 12.93-2.919-.567 1.559-8.017-4.348 7.475-2.217-.431-1.323-8.577-1.558 8.017-2.919-.568 2.514-12.93 3.454.671 1.706 9.668 5.166-8.332 3.398.66zm.035 13.426l2.513-12.931 5.357 1.041c3.547.69 3.777 2.958 3.515 4.307-.313 1.607-1.733 2.404-2.814 2.443.827.18 2.17 1.457 1.793 3.397-.262 1.348-1.405 3.484-4.952 2.795l-5.412-1.052zm4.464-7.088l1.792.348c1.459.284 1.967-.557 2.093-1.203.111-.573.017-1.569-1.497-1.863l-1.792-.349-.596 3.067zm1.457 2.564l-1.885-.366-.617 3.177 1.866.363c1.459.283 1.96-.52 2.1-1.24.115-.592-.024-1.654-1.464-1.934zm12.134 8.378c-4.304-.836-6.222-4.583-5.532-8.13.69-3.546 3.87-6.302 8.174-5.465 4.286.833 6.203 4.58 5.514 8.126-.69 3.547-3.87 6.302-8.156 5.47zm.524-2.697c2.346.456 4.17-1.24 4.584-3.365.413-2.124-.644-4.38-2.99-4.836-2.364-.46-4.17 1.24-4.584 3.364-.413 2.125.625 4.378 2.99 4.837zm10.863-8.853l4.748.922c4.285.833 6.11 4.466 5.467 7.773-.643 3.306-3.677 5.994-7.98 5.158l-4.748-.923 2.513-12.93zm4.097 3.48l-1.607-.313-1.508 7.759 1.607.312c2.42.47 4.19-1.14 4.578-3.136.388-1.995-.65-4.152-3.07-4.622zm6.836 12.064l2.514-12.93 3.03.588-2.514 12.93-3.03-.588zm15.585-7.898l-4.895-.951-.57 2.937 4.895.951-.456 2.346-4.896-.951-.553 2.844 4.896.952-.467 2.401-7.888-1.533 2.514-12.93 7.887 1.533-.467 2.401zm2.978-1.913l4.747.923c4.286.833 6.11 4.465 5.467 7.772-.642 3.306-3.676 5.995-7.98 5.158l-4.748-.923 2.514-12.93zm4.097 3.48l-1.607-.312-1.508 7.758 1.607.312c2.42.47 4.19-1.14 4.577-3.136.388-1.995-.65-4.152-3.07-4.622z" fill="#FCFBF8"/>
        <rect fill="#00B5AA" transform="rotate(7 529.59 255.947)" x="447.173" y="222.089" width="164.835" height="67.716" rx="33.858"/>
        <path d="M482.814 251.226l.278-2.26 6.78.832-.278 2.26-1.344-.165c-.888 2.906-3.358 4.65-7.094 4.191-4.39-.539-6.46-4.054-6.01-7.715.437-3.567 3.42-6.557 7.698-6.031 3.437.422 5.552 2.805 5.471 5.316l-3.231-.396c-.06-1.05-.992-2.113-2.58-2.308-2.465-.303-3.99 1.615-4.26 3.819-.285 2.316.76 4.454 3.47 4.786 1.83.225 3.05-.763 3.416-2.045l-2.316-.284zm17.209-3.973l-4.95-.608-.364 2.97 4.95.608-.292 2.372-4.95-.608-.353 2.876 4.95.608-.298 2.428-7.976-.98 1.606-13.073 7.975.979-.298 2.428zm5.993-1.729l3.68 9.097 1.045-8.517 3.008.37-1.606 13.074-3.156-.388-3.675-8.983-1.032 8.405-3.026-.371 1.605-13.075 3.157.388zm18.06 4.682l-4.95-.607-.364 2.97 4.95.607-.291 2.372-4.95-.608-.353 2.877 4.95.607-.299 2.429-7.975-.98 1.605-13.074 7.976.98-.299 2.427zm7.078 5.495c1.27.156 2.22-.789 2.37-2.003.149-1.214-.544-2.36-1.815-2.517l-2.073-.254-.555 4.52 2.073.254zm-5.846 5.463l1.605-13.074 5.491.674c2.895.356 4.495 2.77 4.183 5.31-.225 1.83-1.396 3.336-3.114 3.903l2.108 4.449-3.512-.432-1.871-3.907-1.42-.175-.444 3.624-3.026-.372zm19.312-1.648l-.909-5.572-2.267 5.182 3.176.39zm4.052 4.517l-3.287-.404-.31-1.65-4.65-.57-.7 1.526-3.23-.397 6.274-12.501 2.783.341 3.12 13.655zm4.82-2.062l3.718.456-.321 2.615-6.743-.828 1.605-13.074 3.026.371-1.284 10.46zm16.898.71l-.908-5.573-2.267 5.182 3.175.39zm4.053 4.516l-3.288-.403-.31-1.65-4.65-.571-.7 1.526-3.23-.397 6.274-12.501 2.783.342 3.12 13.654zm1.474.181l1.605-13.074 3.063.376-1.605 13.074-3.063-.376z" fill="#FCFBF8"/>
        <rect fill="#FFC07F" transform="rotate(-3 255.717 321.433)" x="199.584" y="287.575" width="112.266" height="67.716" rx="33.858"/>
        <path d="M229.567 323.177c1.278-.067 2.05-1.163 1.986-2.385-.064-1.221-.946-2.23-2.224-2.163l-2.086.11.238 4.547 2.086-.11zm-4.809 6.395l-.69-13.155 5.526-.29c2.912-.152 4.907 1.948 5.04 4.504.097 1.842-.794 3.528-2.389 4.384l2.849 4.015-3.533.185-2.521-3.523-1.429.075.192 3.645-3.045.16zm18.64-.638c-4.38.23-7.146-2.942-7.335-6.55-.189-3.608 2.23-7.051 6.61-7.28 4.36-.23 7.126 2.942 7.315 6.55.19 3.608-2.23 7.052-6.59 7.28zm-.144-2.744c2.386-.125 3.747-2.212 3.633-4.373-.113-2.161-1.684-4.095-4.07-3.97-2.406.126-3.748 2.212-3.634 4.373.113 2.162 1.665 4.096 4.07 3.97zm9.013 1.94l-.69-13.154 5.45-.286c3.608-.19 4.38 1.956 4.452 3.328.086 1.635-1.1 2.752-2.139 3.052.847-.026 2.459.889 2.562 2.862.072 1.372-.521 3.72-4.13 3.91l-5.505.288zm2.617-7.957l1.822-.096c1.485-.078 1.775-1.016 1.74-1.674-.03-.582-.362-1.526-1.903-1.445l-1.823.095.164 3.12zm2.034 2.136l-1.917.1.17 3.232 1.897-.1c1.485-.077 1.777-.978 1.738-1.71-.031-.602-.423-1.6-1.888-1.522zm13.8 5.193c-4.379.23-7.145-2.942-7.334-6.55-.19-3.608 2.23-7.051 6.61-7.28 4.359-.23 7.126 2.942 7.315 6.55.189 3.608-2.231 7.052-6.591 7.28zm-.144-2.743c2.387-.125 3.747-2.213 3.634-4.374-.113-2.161-1.684-4.095-4.071-3.97-2.405.126-3.747 2.213-3.634 4.374.113 2.16 1.666 4.096 4.071 3.97zm10.235 1.875l-.552-10.523-2.969.155-.138-2.63 9.002-.472.138 2.63-2.988.157.551 10.524-3.044.16z" fill="#FCFBF8"/>
        <rect fill="#8A8ED8" transform="rotate(23 600.534 420.334)" x="511.434" y="386.476" width="178.2" height="67.716" rx="33.858"/>
        <path d="M551.56 400.571l.662-5.606-3.607 4.356 2.945 1.25zm2.65 5.46l-3.049-1.295.158-1.67-4.314-1.831-1.092 1.273-2.997-1.272 9.477-10.287 2.581 1.096-.764 13.985zm5.203-.654l3.447 1.463-1.03 2.425-6.253-2.654 5.147-12.126 2.806 1.191-4.117 9.7zm11.834 2.795l.89-2.096 6.287 2.669-.89 2.096-1.247-.53c-1.654 2.549-4.51 3.544-7.974 2.074-4.07-1.728-5.092-5.678-3.65-9.073 1.403-3.309 5.095-5.36 9.062-3.676 3.187 1.353 4.564 4.227 3.794 6.619l-2.997-1.272c.231-1.027-.371-2.304-1.844-2.93-2.286-.97-4.28.453-5.148 2.497-.912 2.148-.496 4.491 2.016 5.557 1.697.72 3.143.108 3.849-1.024l-2.148-.911zm11.737 10.44c-4.036-1.713-5.133-5.776-3.72-9.102 1.41-3.326 5.095-5.36 9.131-3.647 4.019 1.706 5.115 5.77 3.704 9.095-1.412 3.326-5.097 5.36-9.115 3.654zm1.073-2.529c2.2.934 4.338-.346 5.184-2.338.845-1.992.28-4.42-1.92-5.353-2.216-.941-4.337.346-5.182 2.338-.846 1.992-.299 4.412 1.918 5.353zm14.446 2.084c1.178.5 2.352-.146 2.83-1.272.478-1.126.127-2.42-1.05-2.92l-1.923-.816-1.78 4.192 1.923.816zm-7.126 3.64l5.147-12.125 5.093 2.161c2.685 1.14 3.557 3.902 2.557 6.258-.72 1.697-2.261 2.822-4.07 2.892l.8 4.858-3.256-1.382-.722-4.273-1.316-.558-1.427 3.36-2.806-1.191zm11.466 4.867l5.147-12.126 2.84 1.206-5.146 12.126-2.841-1.206zm7.135 3.029l4.118-9.7-2.737-1.163 1.03-2.425 8.296 3.522-1.029 2.425-2.754-1.169-4.118 9.7-2.806-1.19zm14.116 5.991l2.044-4.815-4.192-1.78-2.044 4.816-2.806-1.191 5.147-12.125 2.806 1.19-2.08 4.903 4.191 1.78 2.081-4.903 2.789 1.184-5.147 12.125-2.789-1.184zm23.264-4.435l-5.147 12.126-2.736-1.162 3.19-7.518-5.806 6.408-2.079-.883.49-8.664-3.192 7.517-2.737-1.161 5.147-12.126 3.24 1.375-.342 9.811 6.785-7.076 3.187 1.353zm-1.485 8.937l2.806 1.191c-.558 1.317-.092 2.435 1.05 2.92.902.382 1.837.105 2.197-.744.412-.97-.28-1.652-1.167-2.499-1.89-1.763-3.458-3.267-2.414-5.727.948-2.234 3.492-2.544 5.71-1.603 2.875 1.22 3.548 3.632 2.673 5.693l-2.806-1.19c.456-1.075.205-1.978-.765-2.39-.797-.338-1.649-.21-2.001.622-.339.797.188 1.531 1.055 2.329 1.698 1.538 3.63 3.299 2.6 5.724-1.059 2.494-3.535 3.078-6.203 1.946-2.598-1.103-3.911-3.5-2.735-6.272z" fill="#FCFBF8"/>
        <rect fill="#8A8ED8" transform="rotate(-20 132.01 420.249)" x="4.151" y="386.391" width="255.717" height="67.716" rx="33.858"/>
        <path d="M43.87 453.373l2.865-1.043c.49 1.344 1.592 1.844 2.76 1.419.919-.335 1.414-1.176 1.098-2.042-.36-.99-1.331-1.018-2.558-1.032-2.584 0-4.757-.03-5.671-2.541-.83-2.282.819-4.243 3.082-5.067 2.935-1.069 5.072.236 5.838 2.34l-2.864 1.043c-.4-1.096-1.199-1.586-2.189-1.226-.813.296-1.348.972-1.04 1.82.297.814 1.183.992 2.361.984 2.291-.033 4.904-.063 5.805 2.413.926 2.546-.486 4.662-3.21 5.653-2.652.966-5.247.108-6.277-2.721zm16.744-12.863l-4.686 1.705 1.024 2.812 4.686-1.706.817 2.246-4.686 1.706.991 2.723 4.686-1.706.837 2.3-7.55 2.747-4.506-12.378 7.55-2.748.837 2.299zm4.555-4.262l7.41 6.436-2.936-8.064 2.847-1.036 4.506 12.378-2.989 1.088-7.352-6.336 2.896 7.958-2.865 1.042-4.505-12.378 2.988-1.088zm16.21 8.118l-3.604-9.902-2.794 1.017-.9-2.476 8.47-3.083.9 2.476-2.811 1.023 3.604 9.903-2.865 1.042zm7.267-2.644l-4.506-12.378 2.9-1.056 4.506 12.378-2.9 1.056zm14.042-19.13l4.506 12.379-2.794 1.017-2.793-7.675.123 8.647-2.122.772-5.552-6.67 2.793 7.674-2.794 1.017-4.505-12.378 3.307-1.204 6.44 7.408.138-9.802 3.253-1.184zm10.897-1.362l-4.686 1.705 1.024 2.812 4.686-1.706.817 2.246-4.686 1.706.991 2.723 4.686-1.706.837 2.3-7.55 2.747-4.506-12.378 7.55-2.748.837 2.299zm4.556-4.261l7.408 6.435-2.935-8.064 2.847-1.036 4.506 12.378-2.989 1.088-7.352-6.336 2.896 7.958-2.865 1.042-4.505-12.378 2.989-1.087zm16.21 8.118l-3.605-9.903-2.794 1.017-.9-2.476 8.47-3.083.9 2.476-2.811 1.023 3.604 9.903-2.864 1.043zm16.457-10.236l-3.34-4.552.334 5.646 3.006-1.094zm5.661 2.185l-3.112 1.133-1.025-1.33-4.403 1.603.07 1.677-3.06 1.113-.084-13.987 2.635-.959 8.98 10.75zm-.121-13.974l7.408 6.435-2.934-8.063 2.847-1.036 4.505 12.378-2.989 1.088-7.352-6.336 2.896 7.957-2.864 1.043-4.506-12.378 2.989-1.088zm19.09 2.825l-3.34-4.552.333 5.646 3.006-1.094zm5.66 2.185l-3.112 1.132-1.024-1.329-4.403 1.603.07 1.677-3.06 1.113-.084-13.987 2.635-.96 8.979 10.75zm3.36-4.027l3.519-1.28.9 2.475-6.383 2.324-4.505-12.378 2.864-1.043 3.605 9.902zm10.594-15.07l-1.631 14.612-3.165 1.152.588-5.481-7.198-6.131 3.342-1.217 4.405 3.904.493-5.687 3.166-1.152zm2.639 8.412l2.864-1.043c.49 1.344 1.593 1.844 2.76 1.419.92-.335 1.414-1.176 1.099-2.042-.36-.99-1.332-1.018-2.558-1.032-2.584 0-4.758-.03-5.672-2.541-.83-2.282.82-4.244 3.083-5.067 2.935-1.069 5.072.236 5.838 2.34l-2.865 1.043c-.399-1.096-1.198-1.586-2.188-1.226-.814.296-1.349.971-1.04 1.82.296.814 1.182.992 2.36.983 2.292-.032 4.904-.062 5.805 2.414.927 2.546-.486 4.662-3.209 5.653-2.652.966-5.247.108-6.277-2.721zm12.862-.036l-4.506-12.378 2.9-1.055 4.506 12.378-2.9 1.055zm3.403-5.885l2.865-1.042c.49 1.344 1.592 1.843 2.76 1.419.919-.335 1.414-1.176 1.098-2.042-.36-.99-1.331-1.018-2.558-1.032-2.584 0-4.757-.03-5.671-2.542-.83-2.28.819-4.243 3.082-5.066 2.935-1.069 5.072.236 5.838 2.34l-2.864 1.043c-.4-1.096-1.199-1.587-2.189-1.226-.813.296-1.348.971-1.04 1.82.297.814 1.183.992 2.361.983 2.291-.032 4.904-.062 5.805 2.413.926 2.547-.486 4.663-3.21 5.654-2.652.966-5.247.108-6.277-2.722z" fill="#FCFBF8"/>
        <rect fill="#177CBF" transform="rotate(17 405.85 73.735)" x="264.627" y="39.877" width="282.447" height="67.716" rx="33.858"/>
        <path d="M302.862 47.255l3.852-12.597 5.272 1.612c2.79.853 3.946 3.508 3.197 5.956-.748 2.447-3.191 4.003-5.98 3.15l-2.358-.72-1.067 3.49-2.916-.891zm6.707-4.365c1.224.374 2.323-.391 2.681-1.56.358-1.17-.126-2.42-1.35-2.795l-1.997-.61-1.332 4.355 1.998.61zm11.086 5.633l.073-5.645-3.132 4.71 3.06.935zm3.207 5.152l-3.167-.968-.019-1.678-4.48-1.37-.954 1.38-3.113-.951 8.35-11.222 2.681.82.702 13.99zm2.284.698l3.08-10.077-2.843-.87.77-2.519 8.62 2.636-.77 2.519-2.86-.875-3.082 10.078-2.915-.892zm9.302 2.844l3.081-10.077-2.843-.87.77-2.519 8.62 2.635-.77 2.52-2.862-.875-3.08 10.078-2.916-.892zm18.215-5.647l-4.769-1.458-.875 2.861 4.77 1.458-.7 2.286-4.768-1.458-.848 2.771 4.77 1.458-.716 2.34-7.684-2.35 3.851-12.597 7.684 2.35-.715 2.339zm6.016 6.64c1.224.375 2.324-.39 2.681-1.56.358-1.17-.126-2.42-1.35-2.794l-1.997-.611-1.331 4.355 1.997.61zm-6.706 4.365l3.851-12.597 5.29 1.618c2.79.853 3.946 3.508 3.198 5.956-.54 1.763-1.954 3.043-3.745 3.302l1.303 4.747-3.383-1.034-1.164-4.173-1.368-.419-1.067 3.492-2.915-.892zm18.804-8.025l2.044 9.598 2.509-8.206 2.897.886-3.851 12.597-3.041-.93-2.06-9.485-2.475 8.098-2.916-.891 3.852-12.597 3.041.93zm17.375 12.671c1.223.374 2.323-.391 2.68-1.561.358-1.17-.125-2.42-1.349-2.794l-1.997-.61-1.332 4.355 1.998.61zm-6.707 4.365l3.851-12.597 5.291 1.617c2.79.853 3.945 3.509 3.197 5.956-.539 1.764-1.953 3.043-3.745 3.303l1.304 4.747-3.383-1.034-1.164-4.174-1.368-.418-1.067 3.491-2.916-.891zm22.732-4.267l-4.769-1.458-.875 2.862 4.77 1.458-.7 2.285-4.768-1.458-.848 2.771 4.77 1.458-.716 2.34-7.684-2.35 3.851-12.596 7.684 2.349-.715 2.34zm10.013 9.339l3.095.946c-1.306 2.533-4.287 3.983-7.76 2.92-4.248-1.298-5.82-5.163-4.737-8.708 1.051-3.438 4.503-5.846 8.624-4.586 3.905 1.194 5.35 4.194 4.829 7.183l-3.042-.93c.182-1.558-.611-3.02-2.41-3.57-2.466-.754-4.399.74-5.032 2.81-.676 2.214.213 4.454 2.733 5.224 1.421.435 2.973-.134 3.7-1.29zm9.567 8.218c-4.193-1.282-5.708-5.208-4.651-8.663 1.056-3.456 4.508-5.864 8.7-4.582 4.176 1.277 5.69 5.203 4.635 8.658-1.057 3.456-4.509 5.864-8.684 4.587zm.804-2.627c2.285.699 4.278-.798 4.91-2.867.633-2.07-.182-4.425-2.467-5.123-2.304-.704-4.278.797-4.911 2.867s.164 4.419 2.468 5.123zm16.23 2.581l.666-2.177 6.532 1.997-.665 2.177-1.296-.396c-1.379 2.707-4.114 3.996-7.714 2.896-4.229-1.293-5.658-5.115-4.58-8.642 1.052-3.437 4.509-5.863 8.63-4.603 3.311 1.012 4.98 3.726 4.464 6.186l-3.113-.952c.123-1.045-.61-2.253-2.14-2.72-2.375-.726-4.21.897-4.858 3.02-.683 2.232-.024 4.52 2.585 5.317 1.764.539 3.138-.222 3.72-1.42l-2.23-.683zm13.71-4.683l2.043 9.598 2.51-8.206 2.897.885-3.852 12.597-3.041-.93-2.06-9.484-2.475 8.098-2.915-.891 3.851-12.597 3.041.93zm6.152 15.655l3.851-12.597 2.952.902-3.852 12.597-2.95-.902zm7.413 2.266l3.08-10.077-2.842-.87.77-2.519 8.62 2.636-.77 2.519-2.862-.875-3.08 10.078-2.916-.892zm7.395 2.261l3.85-12.597 2.952.903-3.851 12.597-2.951-.903zm11.452 3.856c-4.193-1.282-5.708-5.209-4.651-8.664 1.056-3.455 4.508-5.863 8.7-4.58 4.176 1.275 5.69 5.202 4.634 8.657s-4.508 5.863-8.683 4.587zm.804-2.628c2.285.7 4.277-.797 4.91-2.867s-.182-4.424-2.468-5.123c-2.303-.704-4.277.798-4.91 2.868s.164 4.418 2.468 5.122zm14.77-6.74l2.044 9.599 2.51-8.206 2.896.885-3.85 12.597-3.042-.93-2.06-9.484-2.475 8.098-2.915-.891 3.851-12.597 3.041.93z" fill="#FCFBF8"/>
        <rect fill="#E15FBD" transform="rotate(34 689.188 389.149)" x="543.51" y="355.291" width="291.357" height="67.716" rx="33.858"/>
        <path d="M615.298 329.474l-7.366 10.92-2.465-1.662 4.567-6.77-6.922 5.181-1.873-1.263 2.134-8.412-4.567 6.77-2.465-1.662 7.366-10.92 2.917 1.967-2.207 9.566 8.01-5.651 2.871 1.936zm2.477 12.748l1.72-5.377-4.372 3.588 2.652 1.789zm1.56 5.864l-2.746-1.852.474-1.61-3.885-2.62-1.316 1.041-2.699-1.82 11.267-8.29 2.324 1.568-3.419 13.583zm1.98 1.335l5.893-8.736-2.465-1.663 1.473-2.184 7.473 5.04-1.473 2.185-2.48-1.673-5.894 8.736-2.527-1.705zm12.713 8.576l2.926-4.337-3.776-2.547-2.925 4.337-2.527-1.705 7.366-10.92 2.527 1.705-2.978 4.415 3.775 2.546 2.978-4.415 2.512 1.694-7.366 10.92-2.512-1.693zm17.386-1.212l-4.135-2.788-1.673 2.48 4.135 2.789-1.337 1.98-4.134-2.788-1.62 2.403 4.134 2.788-1.368 2.029-6.662-4.494 7.366-10.92 6.662 4.493-1.368 2.028zm15.08 7.22l-7.367 10.921-2.465-1.662 4.567-6.771-6.922 5.182-1.872-1.263 2.133-8.412-4.567 6.77-2.465-1.662 7.366-10.92 2.917 1.967-2.207 9.565 8.01-5.65 2.871 1.936zm2.476 12.748l1.72-5.377-4.372 3.588 2.652 1.79zm1.56 5.865l-2.745-1.852.473-1.61-3.885-2.62-1.315 1.041-2.7-1.82 11.267-8.29 2.324 1.568-3.419 13.583zm1.98 1.335l5.893-8.736-2.465-1.663 1.473-2.184 7.473 5.04-1.473 2.184-2.48-1.673-5.893 8.737-2.528-1.705zm6.41 4.324l7.367-10.92 2.558 1.725-7.366 10.92-2.558-1.725zm15.496 4.754l2.683 1.81c-1.989 2.04-5.264 2.555-8.275.524-3.682-2.483-4.056-6.64-1.983-9.713 2.01-2.98 6.015-4.273 9.587-1.864 3.386 2.284 3.89 5.575 2.518 8.281l-2.636-1.778c.628-1.437.298-3.067-1.262-4.12-2.137-1.441-4.423-.577-5.633 1.217-1.294 1.92-1.099 4.321 1.086 5.794 1.232.832 2.882.741 3.915-.15zm8.902 6.89l1.72-5.377-4.372 3.588 2.652 1.789zm1.56 5.864l-2.746-1.852.473-1.61-3.884-2.62-1.316 1.042-2.699-1.82 11.266-8.29 2.325 1.568-3.42 13.582zm5.232.351l3.104 2.094-1.473 2.185-5.632-3.8 7.366-10.92 2.527 1.705-5.892 8.736zm26.062 4.868l-7.366 10.92-2.465-1.662 4.567-6.77-6.923 5.181-1.872-1.263 2.133-8.412-4.567 6.77-2.465-1.662 7.366-10.92 2.918 1.968-2.208 9.565 8.011-5.651 2.87 1.936zm-.1 16.23c-3.635-2.451-3.936-6.65-1.915-9.644 2.02-2.996 6.025-4.29 9.66-1.838 3.62 2.442 3.92 6.64 1.9 9.635s-6.026 4.289-9.645 1.848zm1.536-2.277c1.982 1.336 4.325.488 5.535-1.306s1.119-4.284-.862-5.62c-1.997-1.348-4.325-.489-5.535 1.305s-1.134 4.274.862 5.62zm13.46-3.905l4.01 2.704c3.619 2.441 3.878 6.498 1.995 9.29-1.884 2.793-5.727 4.083-9.362 1.63l-4.01-2.704 7.367-10.92zm2.411 4.804l-1.357-.915-4.42 6.552 1.358.915c2.043 1.379 4.302.587 5.439-1.098 1.136-1.684 1.024-4.075-1.02-5.454zm14.238 9.377l-4.134-2.789-1.673 2.48 4.134 2.79-1.336 1.98-4.134-2.788-1.62 2.403 4.133 2.788-1.368 2.028-6.661-4.493 7.366-10.92 6.661 4.493-1.368 2.028zm.123 9.843l3.105 2.094-1.473 2.184-5.632-3.798 7.366-10.921 2.527 1.705-5.893 8.736zm5.18 1.405l2.527 1.705c-.8 1.186-.556 2.372.474 3.066.81.547 1.782.453 2.298-.311.589-.874.04-1.675-.67-2.676-1.517-2.09-2.77-3.867-1.277-6.082 1.358-2.012 3.914-1.832 5.911-.485 2.59 1.747 2.79 4.243 1.538 6.1l-2.527-1.705c.652-.968.579-1.902-.295-2.491-.717-.484-1.578-.52-2.083.228-.484.718-.108 1.54.592 2.488 1.373 1.834 2.932 3.93 1.46 6.114-1.516 2.247-4.058 2.348-6.46.727-2.341-1.578-3.172-4.182-1.489-6.678z" fill="#FCFBF8"/>
        <rect fill="#4844A3" x="203.148" y="419.443" width="325.215" height="67.716" rx="33.858"/>
        <path d="M246.22 453.692c1.28 0 2.108-1.053 2.108-2.277 0-1.223-.828-2.277-2.108-2.277h-2.089v4.554h2.089zm-5.137 6.135v-13.173h5.532c2.917 0 4.799 2.202 4.799 4.761 0 1.845-.979 3.482-2.616 4.253l2.634 4.159h-3.537l-2.334-3.65h-1.43v3.65h-3.048zm20.49-10.726h-4.986v2.992h4.987v2.39h-4.987v2.898h4.987v2.446h-8.035v-13.173h8.035v2.447zm2.558 10.726v-13.173h3.087v13.173h-3.087zm8.937-13.173l4.761 8.581v-8.58h3.03v13.172h-3.18l-4.742-8.468v8.468h-3.049v-13.173h3.18zm18.497 2.56h-4.987v3.556h4.987v2.503h-4.987v4.554h-3.048v-13.173h8.035v2.56zm8.786 10.952c-4.384 0-6.981-3.312-6.981-6.925s2.597-6.925 6.981-6.925c4.366 0 6.963 3.312 6.963 6.925s-2.597 6.925-6.963 6.925zm0-2.748c2.39 0 3.858-2.013 3.858-4.177 0-2.164-1.468-4.178-3.858-4.178-2.408 0-3.857 2.014-3.857 4.178s1.449 4.177 3.857 4.177zm14.112-3.726c1.28 0 2.108-1.053 2.108-2.277 0-1.223-.828-2.277-2.108-2.277h-2.089v4.554h2.09zm-5.137 6.135v-13.173h5.532c2.917 0 4.799 2.202 4.799 4.761 0 1.845-.979 3.482-2.616 4.253l2.635 4.159h-3.538l-2.334-3.65h-1.43v3.65h-3.048zm21.883-4.723h3.237c-.508 2.804-2.935 5.062-6.567 5.062-4.441 0-7.076-3.237-7.076-6.944 0-3.594 2.597-6.906 6.906-6.906 4.084 0 6.342 2.446 6.718 5.457h-3.18c-.282-1.543-1.468-2.71-3.35-2.71-2.578 0-3.989 1.995-3.989 4.159 0 2.315 1.506 4.196 4.14 4.196 1.487 0 2.804-.997 3.161-2.314zm13.266-6.003h-4.987v2.992h4.987v2.39h-4.987v2.898h4.987v2.446h-8.036v-13.173h8.036v2.447zm16.539-2.447v13.173h-2.973v-8.167l-2.842 8.167h-2.258l-2.936-8.167v8.167h-2.973v-13.173h3.52l3.518 9.165 3.481-9.165h3.463zm10.706 2.447h-4.987v2.992h4.987v2.39h-4.987v2.898h4.987v2.446h-8.035v-13.173h8.035v2.447zm5.738-2.447l4.76 8.581v-8.58h3.03v13.172h-3.18l-4.742-8.468v8.468h-3.049v-13.173h3.18zm12.456 13.173v-10.538h-2.974v-2.635h9.014v2.635h-2.992v10.538h-3.048zm15.502-2.635h3.745v2.635h-6.793v-13.173h3.048v10.538zm13.66-8.091h-4.986v2.992h4.987v2.39h-4.987v2.898h4.987v2.446h-8.036v-13.173h8.036v2.447zm9.07 6.737l-1.581-5.42-1.619 5.42h3.2zm4.572 3.989h-3.312l-.508-1.6h-4.686l-.508 1.6h-3.255l4.704-13.173h2.804l4.761 13.173zm6.622-6.135c1.28 0 2.108-1.053 2.108-2.277 0-1.223-.828-2.277-2.108-2.277h-2.088v4.554h2.088zm-5.137 6.135v-13.173h5.533c2.916 0 4.798 2.202 4.798 4.761 0 1.845-.978 3.482-2.616 4.253l2.635 4.159h-3.538l-2.333-3.65h-1.43v3.65h-3.049zm15.636-13.173l4.761 8.581v-8.58h3.03v13.172h-3.18l-4.743-8.468v8.468h-3.048v-13.173h3.18zm10.461 13.173v-13.173h3.087v13.173H460.3zm8.937-13.173l4.761 8.581v-8.58h3.03v13.172h-3.18l-4.742-8.468v8.468h-3.049v-13.173h3.18zM487 455.141v-2.277h6.83v2.277h-1.354c-.527 2.992-2.766 5.025-6.53 5.025-4.422 0-6.906-3.237-6.906-6.925 0-3.595 2.597-6.925 6.906-6.925 3.463 0 5.852 2.107 6.078 4.61h-3.255c-.188-1.035-1.242-1.976-2.842-1.976-2.484 0-3.763 2.089-3.763 4.31 0 2.333 1.298 4.328 4.027 4.328 1.844 0 2.935-1.13 3.142-2.447H487z" fill="#FCFBF8"/>
        <rect fill="#1478BE" transform="rotate(8 406.347 374.979)" x="294.527" y="341.121" width="223.641" height="67.716" rx="33.858"/>
        <path d="M329.893 356.815l3.52 9.16 1.195-8.497 3 .422-1.833 13.044-3.15-.443-3.517-9.045-1.178 8.385-3.02-.424 1.834-13.044 3.15.442zm17.976 4.997l-4.938-.694-.416 2.963 4.938.694-.333 2.367-4.938-.694-.403 2.87 4.938.693-.34 2.423-7.957-1.118 1.833-13.045 7.957 1.118-.34 2.423zm1.461 6.495l1.208-8.59 3.018.424-1.204 8.572c-.168 1.193.51 2.314 1.74 2.487 1.23.173 2.21-.716 2.378-1.908l1.205-8.572 3.019.424-1.208 8.59c-.377 2.684-2.63 4.515-5.76 4.075-3.112-.438-4.773-2.818-4.396-5.502zm17.911.864c1.267.178 2.234-.75 2.404-1.961.17-1.212-.503-2.37-1.77-2.548l-2.069-.291-.633 4.51 2.068.29zm-5.941 5.36l1.833-13.044 5.479.77c2.888.406 4.445 2.848 4.09 5.382-.258 1.826-1.454 3.311-3.183 3.848l2.03 4.485-3.503-.493-1.803-3.94-1.416-.199-.508 3.615-3.019-.424zm19.337-1.31l-.81-5.588-2.357 5.142 3.167.445zm3.974 4.586l-3.28-.46-.28-1.655-4.64-.652-.727 1.513-3.223-.453 6.492-12.39 2.776.39 2.882 13.707zm4.856-1.978l3.708.522-.367 2.608-6.727-.945 1.833-13.044 3.02.424-1.467 10.435zm14.862-8.553l3.52 9.16 1.194-8.497 3 .422-1.833 13.044-3.15-.443-3.517-9.045-1.178 8.385-3.019-.424 1.833-13.044 3.15.442zm17.975 4.997l-4.938-.694-.416 2.963 4.938.694-.333 2.367-4.938-.694-.403 2.87 4.938.693-.34 2.423-7.957-1.118 1.833-13.045 7.957 1.119-.34 2.422zm3.016 11.256l1.466-10.436-2.944-.414.367-2.609 8.926 1.255-.367 2.609-2.963-.417-1.466 10.436-3.02-.424zm18.652 2.62l-1.438-8.562-3.743 7.835-2.478-.348-2.77-13.692 3.187.448 1.462 8.928 3.849-8.181 2.329.327 1.463 8.928 3.848-8.182 3.186.448-6.436 12.398-2.46-.346zm13.852 2.29c-4.341-.61-6.452-4.251-5.95-7.83.504-3.577 3.536-6.496 7.878-5.885 4.323.607 6.434 4.248 5.931 7.826-.503 3.578-3.535 6.496-7.859 5.889zm.383-2.72c2.366.332 4.1-1.458 4.401-3.6.302-2.144-.872-4.342-3.238-4.675-2.386-.335-4.1 1.457-4.402 3.6-.301 2.143.854 4.339 3.239 4.674zm14.493-1.727c1.267.179 2.234-.75 2.404-1.961.17-1.211-.503-2.37-1.77-2.548l-2.069-.29-.634 4.509 2.069.29zm-5.941 5.36l1.833-13.044 5.479.77c2.888.406 4.445 2.848 4.089 5.383-.257 1.826-1.453 3.31-3.182 3.847l2.03 4.485-3.503-.492-1.803-3.94-1.416-.2-.508 3.616-3.02-.425zm19.565 2.75l-3.436-6.108-.776 5.516-3.018-.424 1.833-13.044 3.019.424-.778 5.534 4.99-4.942 3.633.51-6.079 5.797 4.246 7.248-3.634-.51z" fill="#FCFBF8"/>
    </g>
</svg>
